PathFileType	4	(X/Y/Z)	c:/Users/goper/Files/vsCode/490R/osim_files/A06/A06_Fast_01.trc
DataRate	CameraRate	NumFrames	NumMarkers	Units                	OrigDataRate	OrigDataStartFrame	OrigNumFrames
120.00	120.00	10	36	mm	120.0	582	1162
                Frame#	Time	LPSIS			LASIS			LTH1			LTH2			LTH3			LTH4			LLFE			LMFE			LSH1			LSH2			LSH3			LSH4			LLMAL			LMMAL			LCAL			LMTP5			LTOE			LMTP1			RPSIS			RASIS			RTH1			RTH2			RTH3			RTH4			RLFE			RMFE			RSH1			RSH2			RSH3			RSH4			RLMAL			RMMAL			RCAL			RMTP1			RTOE			RMTP5		
		X1	Y1	Z1	X2	Y2	Z2	X3	Y3	Z3	X4	Y4	Z4	X5	Y5	Z5	X6	Y6	Z6	X7	Y7	Z7	X8	Y8	Z8	X9	Y9	Z9	X10	Y10	Z10	X11	Y11	Z11	X12	Y12	Z12	X13	Y13	Z13	X14	Y14	Z14	X15	Y15	Z15	X16	Y16	Z16	X17	Y17	Z17	X18	Y18	Z18	X19	Y19	Z19	X20	Y20	Z20	X21	Y21	Z21	X22	Y22	Z22	X23	Y23	Z23	X24	Y24	Z24	X25	Y25	Z25	X26	Y26	Z26	X27	Y27	Z27	X28	Y28	Z28	X29	Y29	Z29	X30	Y30	Z30	X31	Y31	Z31	X32	Y32	Z32	X33	Y33	Z33	X34	Y34	Z34	X35	Y35	Z35	X36	Y36	Z36

582	4.84167	82.22215	964.02460	378.00073	-109.96872	921.40851	442.30667	10.05602	556.44189	495.18988	6.45268	513.15228	493.84604	-54.84573	549.02802	488.04648	-45.90462	506.16028	488.02646	-0.84712	437.38361	485.38187	-10.18937	424.47223	376.30420	108.09168	411.93738	495.41052	138.17599	376.75357	501.49203	64.75518	365.91873	493.48221	96.49737	338.86700	496.83179	320.09967	203.12163	465.09750	298.95407	187.83757	383.85068	360.15811	250.64340	410.26599	311.51337	77.55430	490.72333	274.72018	61.37719	437.26889	288.49930	66.58297	398.56067	83.37576	982.57489	246.68137	-93.91673	953.66962	185.82843	-25.45964	569.45996	148.43918	-39.85734	528.87164	147.91727	-87.65253	582.27899	151.19585	-92.28368	539.30054	147.55618	-88.34811	421.66251	171.51364	-97.45509	425.15298	260.37704	-98.41409	265.30954	187.39728	-108.57097	218.55707	189.48294	-158.90887	272.93912	192.57480	-160.66417	224.69025	190.24002	-136.92958	94.13590	179.20044	-158.31744	101.95846	262.20096	-89.87273	75.00098	233.70306	-292.39948	63.98854	243.68439	-302.59711	76.17109	200.53123	-271.86023	56.59186	155.83958
583	4.85000	71.14987	965.53735	376.75876	-121.02174	923.03674	440.55600	-11.05717	554.39307	494.56345	-16.00011	511.22806	492.85788	-76.00081	549.30139	487.17236	-68.36861	506.10971	486.89636	-26.61060	435.49176	484.31281	-37.26543	422.84317	374.71750	81.71564	412.95059	493.80289	112.75523	378.53851	499.84769	39.54728	365.83694	491.60928	72.68239	340.02292	495.06915	299.52591	212.16585	463.41232	278.64377	194.64209	382.16602	335.26431	262.01385	407.45172	300.21652	86.01129	488.96011	262.08157	61.85670	436.93738	275.91113	71.75845	398.47891	72.01373	984.06085	245.36124	-105.30697	955.04919	183.72226	-32.48377	571.26910	147.19087	-46.79322	530.19354	146.87964	-94.31855	583.19434	150.13516	-99.36095	539.96539	146.64861	-93.60334	422.38989	170.74983	-102.56778	425.84702	259.66034	-101.65643	265.92807	186.90631	-111.26647	219.01653	189.12328	-162.24045	272.86606	192.21332	-163.40683	224.09828	189.35774	-137.96703	94.19432	179.20230	-158.99040	101.93134	262.01138	-90.34996	75.28007	233.61440	-292.88458	62.72485	244.02580	-303.24460	74.89880	200.85637	-272.54709	55.70089	156.11005
584	4.85833	60.34294	967.23419	375.40158	-131.80548	924.66632	439.03568	-31.91760	553.09497	493.27667	-38.25103	510.08096	491.59265	-96.99157	549.97882	485.71204	-90.74123	506.82047	485.55603	-51.56732	435.04004	482.48840	-64.12389	422.56891	372.79053	55.43367	414.00430	492.19547	87.02753	380.14963	498.14963	14.31459	366.04364	489.36597	47.94458	340.86041	492.82318	278.72537	220.46411	461.20056	258.01694	201.47392	380.05768	311.60199	271.22705	404.31204	285.27228	94.06637	486.99680	246.23669	63.20336	437.05688	260.80435	78.70184	397.05820	60.89547	985.71039	244.06355	-116.99547	956.37091	182.24895	-39.66983	572.80670	146.21387	-53.26357	531.55682	145.94987	-101.94550	584.08313	149.18678	-105.94652	540.77179	145.74626	-98.77419	423.19965	170.02531	-107.63253	426.72238	258.96350	-104.68709	266.71649	186.44466	-113.60699	219.72476	188.74138	-165.35114	272.84085	191.86368	-165.86046	223.99573	188.99261	-138.62030	94.41527	179.20427	-159.53340	102.16176	261.91278	-90.66332	75.57108	233.56340	-293.29453	61.89697	243.98053	-303.78824	73.97016	200.93073	-272.94321	55.01687	156.09886
585	4.86667	49.72043	969.13141	374.15305	-142.36530	926.29144	437.66315	-52.48981	552.55286	491.53696	-60.31184	509.72174	489.75073	-117.67381	551.64630	484.37836	-112.76994	508.26111	484.10297	-76.16591	435.75375	480.55841	-89.71481	424.07510	370.30661	29.85911	415.84528	490.50626	61.68218	382.28256	496.17300	-10.84676	367.04807	486.70459	23.17677	342.43604	490.08810	257.62897	228.45544	458.51001	236.12549	208.35901	377.22458	289.81567	278.84485	400.66830	265.34543	102.64611	485.91660	226.16136	72.45533	436.36230	240.31786	85.26236	396.51712	49.97950	987.58984	242.72375	-126.87288	957.42621	180.25232	-46.78127	574.29431	145.36551	-59.58771	533.08435	145.06952	-109.01999	585.13281	148.37491	-111.92226	541.69318	145.03348	-103.56286	424.15546	169.34187	-112.57400	427.66370	258.23349	-107.62058	267.62524	186.01241	-115.99165	220.55229	188.38422	-168.33276	273.01587	191.40955	-168.23337	224.20547	188.66501	-138.99513	94.75787	179.25247	-160.21260	102.36046	261.72623	-90.97028	75.99040	233.57030	-293.81277	61.23003	243.96129	-304.35434	73.19189	200.95795	-273.31915	54.46056	156.13812
586	4.87500	39.19780	971.25446	372.81418	-152.65941	927.89612	436.61078	-72.82656	552.76227	489.19888	-82.08630	510.20612	487.38007	-138.06894	553.99829	482.93857	-134.60454	510.49326	482.49051	-100.53134	437.43759	478.46143	-113.95812	426.86261	367.42844	4.39697	418.47116	488.23196	37.04688	385.51819	493.76508	-35.23793	369.33725	483.96942	-0.75230	345.18893	487.18814	235.28897	235.68933	455.44171	213.80843	215.04350	374.16431	268.63690	284.90152	396.94681	240.66298	110.27808	484.41342	200.87247	79.07480	435.44598	215.48227	91.97324	395.36792	39.26153	989.66278	241.43335	-137.48108	958.63391	179.08745	-53.51733	575.94208	144.51479	-65.85091	534.56366	144.28723	-115.83514	586.07556	147.53314	-118.43690	542.15344	144.06419	-108.43549	425.15274	168.77104	-117.43948	428.62967	257.68573	-110.50383	268.58255	185.62476	-118.37873	221.39835	188.13544	-171.35298	273.01801	190.98161	-169.96786	224.37181	188.59308	-139.75279	95.08710	179.28319	-160.84642	102.43508	261.58591	-91.19176	76.44896	233.50166	-294.17908	60.65083	243.99866	-304.77786	72.51712	201.00345	-273.63080	54.07616	156.21367
587	4.88333	28.79911	973.50439	371.47357	-163.22060	929.65173	435.86740	-92.84686	553.92719	486.56653	-103.65308	511.63504	484.68872	-158.36475	557.30157	481.36084	-156.24608	513.62146	480.59744	-124.56557	440.14514	476.43790	-137.48848	430.66147	364.59418	-19.75332	422.57962	485.57950	12.84883	389.65207	490.82303	-59.38435	372.98331	481.16422	-24.51880	349.10580	484.15845	211.32288	241.07059	452.18439	190.32112	219.99724	370.98276	246.36751	288.98874	393.30194	213.61101	116.22625	482.49634	174.12404	84.68009	433.22903	189.03857	97.69659	393.22699	28.68675	991.83856	240.09628	-148.25272	959.79663	178.27130	-60.18765	577.50726	143.80399	-71.91664	535.94543	143.62332	-122.89745	586.32196	146.87166	-124.69386	543.00836	143.40677	-113.21098	426.11014	168.28931	-122.07484	429.59274	257.19342	-113.31159	269.61206	185.32053	-120.66720	222.33647	187.87695	-174.20595	273.54404	190.84758	-173.04565	224.65169	188.12955	-140.14395	95.55272	179.31618	-161.29608	102.65636	261.56448	-91.35815	76.84619	233.52811	-294.47739	60.13824	244.09366	-305.11865	71.90794	201.12604	-273.89581	53.76881	156.28654
588	4.89167	18.50714	976.00549	370.08664	-173.36531	931.18518	435.18469	-112.86853	556.14459	483.94501	-125.02055	514.23212	481.92868	-178.44028	561.57031	479.57544	-177.68227	517.87305	478.64197	-148.37183	444.17352	474.35571	-160.91985	435.47485	361.84271	-44.39953	426.82449	482.41238	-11.68132	394.07642	487.74936	-83.35775	377.91898	478.35242	-48.11456	354.86603	481.37503	186.32310	244.45502	448.98737	165.54015	223.44377	367.81265	222.26810	291.43924	390.05621	186.20332	119.87395	479.63431	146.40742	88.46120	430.50677	161.38406	100.83707	390.60797	18.12479	994.09760	238.69397	-158.91556	961.03998	177.76488	-66.68313	579.12451	143.27359	-77.91956	537.41986	143.22461	-129.30309	587.38177	146.23586	-130.89458	543.76312	142.93710	-117.88137	427.03766	167.93233	-126.91872	430.47437	256.90567	-116.15240	270.59155	185.13483	-122.93501	223.23404	187.71182	-177.05687	273.57959	190.59912	-175.35294	224.96448	188.04449	-140.66209	96.02168	179.46503	-161.80888	102.84677	261.65158	-91.61646	77.24276	233.70004	-294.86429	59.72321	244.19614	-305.51773	71.40315	201.26291	-274.16318	53.53827	156.39095
589	4.90000	8.32674	978.71979	368.57336	-183.23531	932.76678	434.57071	-132.51767	559.25562	481.41470	-145.48537	518.18158	478.58337	-198.04312	566.48889	477.68152	-198.23985	524.05316	477.15994	-171.56931	449.24127	472.29449	-184.32831	440.72336	359.14056	-69.24516	430.62247	479.53134	-36.67173	397.72018	485.07681	-108.33907	381.69836	475.62750	-73.10492	358.63327	478.94833	161.19629	246.11475	445.79849	139.77682	225.76892	364.75504	198.12363	292.69498	386.97855	158.49927	121.55515	476.06689	118.09155	91.25766	427.05273	132.80988	103.24535	387.07684	7.69217	996.41309	237.13768	-169.46835	962.30255	177.35455	-73.11708	580.68176	142.96819	-83.90070	538.83276	142.91226	-135.87506	588.35217	145.99086	-136.85092	544.58728	142.65764	-122.48766	428.08154	167.73866	-131.72527	431.46667	256.70654	-118.94430	271.61954	185.03093	-125.16389	224.20163	187.69464	-179.84032	274.08603	190.67323	-177.55869	225.29942	188.00459	-141.03938	96.43077	179.65674	-162.21323	103.04588	261.78027	-91.83060	77.63332	233.87823	-295.18372	59.33982	244.25064	-305.83853	70.98727	201.37549	-274.41754	53.32245	156.50244
590	4.90833	-1.83362	981.43195	366.95328	-193.18752	934.42371	433.92630	-151.77802	562.82904	479.17935	-166.05440	522.14624	476.20352	-217.34854	572.00769	475.81882	-218.72318	529.43231	475.19614	-193.60434	455.44748	471.07388	-207.57347	446.32889	356.69470	-93.81361	433.57315	477.29529	-61.69282	400.28729	483.08582	-133.49297	385.09097	472.99100	-99.68581	360.06320	476.67987	135.77196	246.07399	442.67905	113.38634	226.97049	361.59689	173.54832	292.26227	384.13690	129.83737	121.49616	471.96826	87.34380	93.54156	423.55386	104.14440	105.15728	382.25900	-2.67732	998.80548	235.52002	-180.00189	963.42236	176.97249	-79.22209	582.37433	142.67709	-89.77894	540.34521	142.74232	-142.41039	589.21283	145.87044	-142.88158	545.36938	142.50194	-127.11053	429.09677	167.65717	-136.11664	432.48038	256.61111	-120.91293	273.28992	184.98582	-127.24471	225.20985	187.71307	-182.57671	274.45517	190.67111	-179.08382	225.61917	188.22566	-141.53464	96.77173	179.93945	-162.53378	103.24825	261.91464	-91.97527	77.98346	234.12164	-295.40338	59.04316	244.33011	-306.06763	70.61485	201.46053	-274.62158	53.18626	156.59872
591	4.91667	-12.07291	984.24048	365.29962	-203.28375	936.32507	433.37067	-170.84741	566.53937	477.12448	-186.32585	526.33136	474.11313	-236.05238	577.68689	474.03876	-238.82648	535.05573	473.20114	-216.52901	460.19440	468.96738	-230.62549	452.13504	354.56421	-117.66228	435.99258	475.58759	-86.28865	401.99966	481.32419	-158.06342	388.82690	470.42322	-124.95261	362.62061	474.11505	109.59811	244.43689	439.52512	86.21110	227.08522	358.37003	148.52353	290.09085	381.47354	99.38411	119.90165	467.15906	55.39021	93.63579	418.61353	71.86233	105.86770	377.83679	-13.21382	1001.07068	233.84340	-190.51271	964.54059	176.46989	-85.48798	583.91156	142.58485	-95.67425	541.64728	142.66750	-148.74562	590.07251	145.65671	-148.77586	546.13794	142.38168	-131.68399	430.04343	167.59703	-140.73291	433.37640	256.55331	-124.40456	273.72003	185.00183	-129.43777	226.16901	187.82086	-185.39078	274.81421	190.76161	-181.24586	225.97853	188.27388	-141.80676	97.23254	180.18094	-162.95723	103.45284	262.05850	-92.16672	78.29545	234.31415	-295.66534	58.80632	244.38751	-306.31763	70.33746	201.53261	-274.74823	53.11128	156.66379
